<svg width="57" height="57" viewBox="0 0 57 57" fill="none" xmlns="http://www.w3.org/2000/svg">
<path d="M48.554 8.3306C43.182 2.95844 36.0394 0 28.4423 0C20.8452 0 13.7026 2.95844 8.3306 8.3306C2.95844 13.7026 0 20.8452 0 28.4423C0 36.0394 2.95844 43.182 8.3306 48.554C13.7026 53.9262 20.8452 56.8846 28.4423 56.8846C36.0394 56.8846 43.182 53.9262 48.554 48.554C53.9261 43.1819 56.8846 36.0394 56.8846 28.4423C56.8846 20.8452 53.9262 13.7026 48.554 8.3306ZM28.4423 55.0883C13.7496 55.0883 1.79631 43.135 1.79631 28.4423C1.79631 13.7496 13.7496 1.79631 28.4423 1.79631C43.135 1.79631 55.0883 13.7496 55.0883 28.4423C55.0883 43.135 43.135 55.0883 28.4423 55.0883Z" fill="#BF7691"/>
<path d="M37.8474 12.1636H19.0396C15.2487 12.1636 12.1648 15.2476 12.1648 19.0384V37.8464C12.1648 41.637 15.2488 44.7211 19.0396 44.7211H37.8476C41.6382 44.7211 44.7223 41.637 44.7223 37.8463V19.0384C44.7222 15.2475 41.6382 12.1636 37.8474 12.1636ZM43.0668 37.8462C43.0668 40.7241 40.7253 43.0656 37.8474 43.0656H19.0396C16.1616 43.0656 13.8202 40.7241 13.8202 37.8462V19.0384C13.8202 16.1604 16.1616 13.819 19.0396 13.819H37.8476C40.7254 13.819 43.0669 16.1604 43.0669 19.0384V37.8462H43.0668Z" fill="#BF7691"/>
<path d="M36.9826 27.9529C36.7378 23.598 33.194 20.0945 28.8367 19.898C23.8086 19.6714 19.6694 23.8126 19.899 28.8413C20.0982 33.199 23.6045 36.741 27.9599 36.9822C29.7979 37.0841 31.5191 36.6006 32.9568 35.703C33.4046 35.4234 33.4776 34.8005 33.1043 34.4273C33.1003 34.4233 33.0964 34.4194 33.0925 34.4156C32.8205 34.1434 32.3985 34.1023 32.0716 34.3055C30.9974 34.973 29.7277 35.3541 28.3694 35.3398C24.5345 35.2995 21.4402 32.0794 21.5482 28.2457C21.6568 24.3876 24.949 21.3118 28.8851 21.5585C32.2768 21.771 35.0376 24.4755 35.317 27.8625C35.4308 29.2422 35.1341 30.5457 34.5378 31.6669C34.3672 31.988 34.4198 32.3818 34.6769 32.6389C34.6811 32.6431 34.6854 32.6474 34.6896 32.6516C35.0759 33.0379 35.7292 32.9471 35.9874 32.4657C36.7022 31.1319 37.0746 29.5887 36.9826 27.9529Z" fill="#BF7691"/>
<path d="M37.2725 20.7168C38.4915 20.7168 39.4798 19.7286 39.4798 18.5095C39.4798 17.2905 38.4915 16.3022 37.2725 16.3022C36.0534 16.3022 35.0652 17.2905 35.0652 18.5095C35.0652 19.7286 36.0534 20.7168 37.2725 20.7168Z" fill="#BF7691"/>
</svg>
