<svg width="57" height="57" viewBox="0 0 57 57" fill="none" xmlns="http://www.w3.org/2000/svg">
<path d="M48.554 8.3306C43.182 2.95844 36.0394 0 28.4423 0C20.8452 0 13.7026 2.95844 8.3306 8.3306C2.95844 13.7026 0 20.8452 0 28.4423C0 36.0394 2.95844 43.182 8.3306 48.554C13.7026 53.9262 20.8452 56.8846 28.4423 56.8846C36.0394 56.8846 43.182 53.9262 48.554 48.554C53.9261 43.1819 56.8846 36.0394 56.8846 28.4423C56.8846 20.8452 53.9262 13.7026 48.554 8.3306ZM28.4423 55.0883C13.7496 55.0883 1.79631 43.135 1.79631 28.4423C1.79631 13.7496 13.7496 1.79631 28.4423 1.79631C43.135 1.79631 55.0883 13.7496 55.0883 28.4423C55.0883 43.135 43.135 55.0883 28.4423 55.0883Z" fill="#BF7691"/>
<path d="M43.3698 12.4356C43.1157 12.2441 42.7742 12.2154 42.4916 12.3616L10.4859 28.9163C10.2092 29.0593 10.0363 29.3457 10.0383 29.6571C10.0404 29.9686 10.2172 30.2525 10.4959 30.3919L18.8676 34.5775V42.8717C18.8676 43.0887 18.9415 43.3035 19.0909 43.4611C19.2561 43.6355 19.4757 43.7229 19.6955 43.7229C19.8339 43.7229 19.9723 43.6883 20.0975 43.6187L29.6754 38.2976L37.0061 41.4393C37.1621 41.5062 37.3347 41.5338 37.5016 41.5027C37.8451 41.4385 38.1005 41.1754 38.1656 40.8503L40.0204 31.5762C40.1227 31.064 39.731 30.5861 39.2086 30.5861C38.814 30.5859 38.4744 30.8644 38.397 31.2512L36.7422 39.5251L29.9543 36.616C29.7191 36.5152 29.4502 36.529 29.2262 36.6532L20.5232 41.4883V34.0659C20.5232 33.7524 20.346 33.4659 20.0656 33.3255L12.6921 29.6388L41.7224 14.6231L39.2031 27.2193C39.1007 27.7315 39.4924 28.2094 40.0148 28.2094C40.4093 28.2094 40.7491 27.9308 40.8266 27.5439L43.6835 13.259C43.7459 12.9471 43.6239 12.6269 43.3698 12.4356Z" fill="#BF7691"/>
<path d="M38.004 19.2053C37.7439 18.876 37.2782 18.7933 36.9207 19.0136L22.5733 27.8427C22.3285 27.9934 22.1794 28.2603 22.1794 28.5477V37.3769C22.1793 37.7608 22.4433 38.0942 22.8168 38.1825C22.8804 38.1975 22.9442 38.2048 23.0073 38.2048C23.3151 38.2048 23.6049 38.0322 23.7473 37.7471L26.9982 31.2454L37.9397 20.3039C38.2366 20.0069 38.2642 19.5348 38.004 19.2053ZM25.7326 30.1696C25.6699 30.2325 25.6175 30.3052 25.5777 30.3848L23.8349 33.8704V29.0102L31.7839 24.1184L25.7326 30.1696Z" fill="#BF7691"/>
</svg>
