<svg width="57" height="57" viewBox="0 0 57 57" fill="none" xmlns="http://www.w3.org/2000/svg">
<path d="M48.554 8.3306C43.182 2.95844 36.0394 0 28.4423 0C20.8452 0 13.7026 2.95844 8.33071 8.3306C2.95844 13.7026 0 20.8452 0 28.4423C0 36.0394 2.95844 43.182 8.33071 48.554C13.7026 53.9262 20.8452 56.8846 28.4423 56.8846C36.0394 56.8846 43.182 53.9262 48.554 48.554C53.9261 43.1819 56.8846 36.0394 56.8846 28.4423C56.8846 20.8452 53.9262 13.7026 48.554 8.3306ZM28.4423 55.0883C13.7496 55.0883 1.79631 43.135 1.79631 28.4423C1.79631 13.7496 13.7496 1.79631 28.4423 1.79631C43.135 1.79631 55.0883 13.7496 55.0883 28.4423C55.0883 43.135 43.135 55.0883 28.4423 55.0883Z" fill="#BF7691"/>
<path d="M47.177 16.7228C46.9806 15.3781 45.8965 14.3316 44.5407 14.1781C33.8587 12.9679 23.0263 12.968 12.3443 14.1781C10.9884 14.3317 9.90441 15.3781 9.70792 16.7229C8.57294 24.4986 8.57294 32.3839 9.70792 40.1598C9.90431 41.5045 10.9884 42.551 12.3442 42.7045C17.6853 43.3096 23.0638 43.6123 28.4424 43.6123C30.732 43.6123 33.0217 43.5568 35.3083 43.4469C35.7488 43.4257 36.0947 43.0606 36.0947 42.6196C36.0947 42.1462 35.6982 41.7709 35.2254 41.7935C27.6567 42.1563 20.0557 41.9122 12.5305 41.0595C11.921 40.9905 11.4337 40.5221 11.346 39.9205C10.2342 32.3034 10.2342 24.579 11.3459 16.962C11.4338 16.3604 11.921 15.892 12.5306 15.823C17.8096 15.225 23.126 14.9259 28.4424 14.9259C33.7589 14.9259 39.0752 15.2249 44.3544 15.823C44.9639 15.892 45.4511 16.3605 45.5388 16.962C46.6506 24.5791 46.6506 32.3035 45.5389 39.9205C45.451 40.5222 44.9639 40.9905 44.3544 41.0595C44.3544 41.0595 44.3544 41.0595 44.3543 41.0595C42.6521 41.2523 40.9459 41.414 39.2373 41.5445C38.8054 41.5775 38.4712 41.936 38.4712 42.3691V42.3699C38.4712 42.8509 38.88 43.2322 39.3595 43.1955C41.0896 43.0634 42.817 42.8996 44.5406 42.7044C45.8965 42.5508 46.9805 41.5044 47.177 40.1596C48.312 32.384 48.312 24.4986 47.177 16.7228Z" fill="#BF7691"/>
<path d="M37.6564 27.7101L23.309 20.1741C23.0524 20.0393 22.744 20.0485 22.4961 20.1985C22.248 20.3484 22.0964 20.617 22.0964 20.9069V35.9788C22.0964 36.2687 22.248 36.5374 22.4961 36.6873C22.6274 36.7666 22.7756 36.8066 22.9241 36.8066C23.0561 36.8066 23.1883 36.775 23.309 36.7116L37.6564 29.1756C37.9287 29.0326 38.0993 28.7504 38.0993 28.4428C38.0993 28.1352 37.9287 27.8532 37.6564 27.7101ZM23.7519 34.6092V22.2767L35.4915 28.4429L23.7519 34.6092Z" fill="#BF7691"/>
</svg>
